<?xml version="1.0" encoding="UTF-8" standalone="no"?>
<!DOCTYPE svg PUBLIC "-//W3C//DTD SVG 1.1//EN" "http://www.w3.org/Graphics/SVG/1.1/DTD/svg11.dtd">
<svg version="1.1" xmlns="http://www.w3.org/2000/svg" xmlns:xlink="http://www.w3.org/1999/xlink" preserveAspectRatio="xMidYMid meet" viewBox="0 0 1200 1800" width="1200" height="1800"><defs><path d="M178.74 361.38C193.73 356.6 209.26 353.68 224.97 352.71C248.46 351.25 221.81 352.9 226.93 352.58C303.3 347.84 379.89 356.95 453.01 379.47C467.9 384.06 432.78 373.24 455.37 380.2C455.37 380.2 597.61 429.96 597.61 429.96C604.73 432.75 622.53 439.75 651.01 450.93C687.08 462.52 709.62 469.77 718.63 472.67C752.11 483.43 786.69 490.36 821.73 493.34C845.5 495.36 813.09 492.61 824.11 493.54C901.49 500.12 979.38 497.74 1056.22 486.45C1075.39 483.64 1123.32 476.6 1200 465.34L1200 0L0 0L0 462.21C0.19 462 0.31 461.87 0.35 461.82C36.97 421.6 83.53 391.73 135.35 375.21C148.54 371.01 154.24 369.19 178.74 361.38Z" id="b1KcCwGYL2"></path><linearGradient id="gradienteEdlb0Rzg" gradientUnits="userSpaceOnUse" x1="618.75" y1="517.76" x2="618.75" y2="0"><stop style="stop-color: #65c3c3;stop-opacity: 1" offset="0%"></stop><stop style="stop-color: #541056;stop-opacity: 1" offset="100%"></stop></linearGradient><path d="M0 506.25L1203.47 500.62L1200 380.11C1176.39 374.61 1161.63 371.18 1155.73 369.8C1098.4 356.45 1039.9 348.75 981.06 346.8C951.34 345.82 964.37 346.25 938.08 345.38C868.59 343.09 799.5 356.81 736.16 385.5C730.57 388.04 754.62 377.14 735.16 385.96C735.16 385.96 681.32 410.62 681.32 410.62C656.36 422.19 680.76 410.88 673.9 414.06C597.67 449.39 512.1 459.23 429.84 442.14C415.12 439.08 428.14 441.79 396.05 435.12C369.7 429.65 344.46 419.8 321.36 406C307.42 397.67 324.48 407.86 316.54 403.12C273.96 377.67 225.75 363.15 176.2 360.86C172.48 360.69 185.06 361.27 168.41 360.5C168.41 360.5 146.78 361.01 146.78 361.01C129.92 362.59 127.93 362.78 120.51 363.48C82.23 367.07 45.08 378.38 11.29 396.72C9.03 397.94 21.09 391.4 10.74 397.01C4.12 400.6 0 407.53 0 415.06C0 427.22 0 457.61 0 506.25Z" id="e4IrxxEd1"></path><path d="M46.88 819.26L890.63 819.26L866.07 794.57L823.65 729.41L773.65 682.44L646.88 650.51L540.32 665.78L478.13 706.76L335.77 723.35L228.19 686.99L178.13 630.93L46.88 608.2L46.88 819.26Z" id="c1N5aV2REm"></path></defs><g><g><g><use xlink:href="#b1KcCwGYL2" opacity="1" fill="url(#gradienteEdlb0Rzg)"></use><g><use xlink:href="#b1KcCwGYL2" opacity="1" fill-opacity="0" stroke="#000000" stroke-width="0" stroke-opacity="1"></use></g></g><g><use xlink:href="#e4IrxxEd1" opacity="1" fill="#f7f5f8" fill-opacity="0.74"></use><g><use xlink:href="#e4IrxxEd1" opacity="1" fill-opacity="0" stroke="#000000" stroke-width="1" stroke-opacity="1"></use></g></g><g><g><use xlink:href="#c1N5aV2REm" opacity="1" fill-opacity="0" stroke="#000000" stroke-width="1" stroke-opacity="1"></use></g></g></g></g></svg>